<?xml version="1.0" standalone="no"?>
<svg xmlns="http://www.w3.org/2000/svg" width="32" height="32" viewBox="0 0 32 32">
<g transform="translate(0,32) scale(0.1,-0.1)" fill="#E11D48" stroke="none">
<path d="M90 184 c-36 -69 -66 -129 -68 -133 -2 -5 29 -16 68 -26 66 -16 74 -16 140 0 39 9 70 19 70 20 0 6 -131 250 -138 257 -4 4 -36 -49 -72 -118z m125 -25 c25 -49 45 -92 45 -97 0 -4 -24 -13 -54 -19 -51 -11 -83 -8 -144 12 -9 4 3 34 40 104 29 55 56 97 61 94 4 -2 28 -45 52 -94z"/>
<path d="M117 145 l-37 -75 28 0 c17 0 23 3 14 8 -9 7 -7 18 10 50 13 23 26 42 29 42 7 0 39 -67 39 -82 0 -6 -8 -17 -17 -25 -16 -12 -15 -13 12 -7 46 10 47 11 16 72 -53 103 -51 103 -94 17z"/>
</g>
</svg>
